<?xml version="1.0" encoding="UTF-8"?>
<svg width="24px" height="20px" viewBox="0 0 20 16" version="1.1" xmlns="http://www.w3.org/2000/svg" xmlns:xlink="http://www.w3.org/1999/xlink">
    <!-- Generator: Sketch 54.1 (76490) - https://sketchapp.com -->
    <title>Learn Copy 2</title>
    <desc>Created with Sketch.</desc>
    <g id="Components" stroke="none" stroke-width="1" fill="none" fill-rule="evenodd">
        <g id="Buttons" transform="translate(-44.000000, -68.000000)">
            <g id="Learn-Copy-2" transform="translate(42.000000, 64.000000)">
                <polygon id="Shape" points="0 0 24 0 24 24 0 24"></polygon>
                <g id="Group" transform="translate(2.400000, 4.800000)" fill="#EC4C6F" fill-rule="nonzero">
                    <path d="M18.6352941,11.2941176 L18.6352941,0.564705882 C18.6352941,0.252827435 18.3824667,3.55271368e-15 18.0705882,3.55271368e-15 L1.12941176,3.55271368e-15 C0.817533318,3.55271368e-15 0.564705882,0.252827435 0.564705882,0.564705882 L0.564705882,11.2941176 C0.252827435,11.2941176 0,11.5469451 0,11.8588235 L0,12.9882353 C-2.00623831e-15,13.9238706 0.758482306,14.6823529 1.69411765,14.6823529 L17.5058824,14.6823529 C18.4415177,14.6823529 19.2,13.9238706 19.2,12.9882353 L19.2,11.8588235 C19.2,11.5469451 18.9471726,11.2941176 18.6352941,11.2941176 Z M1.69411765,1.12941176 L17.5058824,1.12941176 L17.5058824,11.2941176 L1.69411765,11.2941176 L1.69411765,1.12941176 Z M1.12941176,12.9882353 L1.12941176,12.4235294 L7.90588235,12.4235294 L7.90588235,13.5529412 L1.69411765,13.5529412 C1.3822392,13.5529412 1.12941176,13.3001137 1.12941176,12.9882353 Z M9.03529412,13.5529412 L9.03529412,12.4235294 L10.1647059,12.4235294 L10.1647059,13.5529412 L9.03529412,13.5529412 Z M18.0705882,12.9882353 C18.0705882,13.3001137 17.8177608,13.5529412 17.5058824,13.5529412 L11.2941176,13.5529412 L11.2941176,12.4235294 L18.0705882,12.4235294 L18.0705882,12.9882353 Z" id="Shape"></path>
                    <path d="M11.8588235,9.6 L11.8588235,2.82352941 C11.8588235,2.51165096 11.6059961,2.25882353 11.2941176,2.25882353 L3.38823529,2.25882353 C3.07635685,2.25882353 2.82352941,2.51165096 2.82352941,2.82352941 L2.82352941,9.6 C2.82352941,9.91187845 3.07635685,10.1647059 3.38823529,10.1647059 L11.2941176,10.1647059 C11.6059961,10.1647059 11.8588235,9.91187845 11.8588235,9.6 Z M10.7294118,9.03529412 L3.95294118,9.03529412 L3.95294118,3.38823529 L10.7294118,3.38823529 L10.7294118,9.03529412 Z" id="Shape"></path>
                    <rect id="Rectangle" x="12.9882353" y="2.25882353" width="3.38823529" height="1.12941176"></rect>
                    <rect id="Rectangle" x="12.9882353" y="4.51764706" width="3.38823529" height="1.12941176"></rect>
                    <rect id="Rectangle" x="12.9882353" y="6.77647059" width="3.38823529" height="1.12941176"></rect>
                    <rect id="Rectangle" x="12.9882353" y="9.03529412" width="3.38823529" height="1.12941176"></rect>
                    <path d="M6.55058824,8.35764706 L8.80941176,6.66352941 C8.95160801,6.55688223 9.03529412,6.38951001 9.03529412,6.21176471 C9.03529412,6.03401941 8.95160801,5.86664718 8.80941176,5.76 L6.55058824,4.06588235 L5.87294118,4.96941176 L7.52752941,6.21176471 L5.87294118,7.45411765 L6.55058824,8.35764706 Z" id="Path"></path>
                </g>
            </g>
        </g>
    </g>
</svg>
